<svg width="512" height="512" viewBox="0 0 512 512" fill="none" xmlns="http://www.w3.org/2000/svg">
  <defs>
    <linearGradient id="bg" x1="88" y1="72" x2="416" y2="440" gradientUnits="userSpaceOnUse">
      <stop stop-color="#14223D" />
      <stop offset="1" stop-color="#090B10" />
    </linearGradient>
    <linearGradient id="halo" x1="128" y1="96" x2="392" y2="416" gradientUnits="userSpaceOnUse">
      <stop stop-color="#60A5FA" stop-opacity="0.9" />
      <stop offset="1" stop-color="#2563EB" stop-opacity="0.5" />
    </linearGradient>
    <linearGradient id="mark" x1="156" y1="132" x2="360" y2="360" gradientUnits="userSpaceOnUse">
      <stop stop-color="#EFF6FF" />
      <stop offset="1" stop-color="#BFDBFE" />
    </linearGradient>
    <linearGradient id="accent" x1="260" y1="196" x2="334" y2="284" gradientUnits="userSpaceOnUse">
      <stop stop-color="#93C5FD" />
      <stop offset="1" stop-color="#3B82F6" />
    </linearGradient>
    <filter id="shadow" x="52" y="52" width="408" height="408" filterUnits="userSpaceOnUse" color-interpolation-filters="sRGB">
      <feFlood flood-opacity="0" result="BackgroundImageFix"/>
      <feColorMatrix in="SourceAlpha" type="matrix" values="0 0 0 0 0 0 0 0 0 0 0 0 0 0 0 0 0 0 127 0" result="hardAlpha"/>
      <feOffset dy="18"/>
      <feGaussianBlur stdDeviation="18"/>
      <feComposite in2="hardAlpha" operator="out"/>
      <feColorMatrix type="matrix" values="0 0 0 0 0.0196078 0 0 0 0 0.0313726 0 0 0 0 0.054902 0 0 0 0.45 0"/>
      <feBlend mode="normal" in2="BackgroundImageFix" result="effect1_dropShadow_1_1"/>
      <feBlend mode="normal" in="SourceGraphic" in2="effect1_dropShadow_1_1" result="shape"/>
    </filter>
  </defs>

  <g filter="url(#shadow)">
    <rect x="88" y="88" width="336" height="336" rx="88" fill="url(#bg)"/>
    <rect x="90" y="90" width="332" height="332" rx="86" stroke="url(#halo)" stroke-width="4"/>
    <path d="M170 132H248C334.708 132 394 186.785 394 256C394 325.215 334.708 380 248 380H170V132ZM224 186V326H245.5C299.474 326 338 295.216 338 256C338 216.784 299.474 186 245.5 186H224Z" fill="url(#mark)"/>
    <path d="M263 210L324 256L263 302V270H219V242H263V210Z" fill="url(#accent)"/>
  </g>
</svg>
